# xmcd
# 
# Track frame offsets:
#	150
#	11998
#	24685
#	39234
#	59396
#	75703
#	96099
#	110140
#	125503
#	141989
#	157544
#	174768
#
# Disc length: 2734 seconds
#
# Revision: 2
# Processed by: cddbd v1.5.1PL0 Copyright (c) Steve Scherf et al.
# Submitted via: Audio-CD-Archiv 3.00.487
#
DISCID=940aac0c
DTITLE=Joy Division - Stroszek's Last Stand
DYEAR=1900
DGENRE=blues
TTITLE0=Passover (Live In Amsterdam 11.01.80)
TTITLE1=Wilderness (Live In Amsterdam 11.01.80)
TTITLE2=Digital (Live In Amsterdam 11.01.80)
TTITLE3=Day Of The Lords (Live In Amsterdam 11.01.80)
TTITLE4=Insight (Live In Amsterdam 11.01.80)
TTITLE5=New Dawn Fades (Live In Amsterdam 11.01.80)
TTITLE6=Disorder (Live In Amsterdam 11.01.80)
TTITLE7=Transmission (Live In Amsterdam 11.01.80)
TTITLE8=Love Will Tear Us Apart (Live In Amsterdam 11.01.80)
TTITLE9=Shadowplay (Live In Amsterdam 11.01.80)
TTITLE10=She's Lost Control (Live In Amsterdam 11.01.80)
TTITLE11=Atrocity Exhibition (Live In Amsterdam 11.01.80)
EXTD=
EXTT0=
EXTT1=
EXTT2=
EXTT3=
EXTT4=
EXTT5=
EXTT6=
EXTT7=
EXTT8=
EXTT9=
EXTT10=
EXTT11=
PLAYORDER=
